<?xml version="1.0" standalone="no"?><!DOCTYPE svg PUBLIC "-//W3C//DTD SVG 1.1//EN" "http://www.w3.org/Graphics/SVG/1.1/DTD/svg11.dtd"><svg t="1681737829995" class="icon" viewBox="0 0 1024 1024" version="1.1" xmlns="http://www.w3.org/2000/svg" p-id="3329" xmlns:xlink="http://www.w3.org/1999/xlink" width="200" height="200"><path d="M514.56 514.56m-448 0a448 448 0 1 0 896 0 448 448 0 1 0-896 0Z" fill="#FFE86B" p-id="3330"></path><path d="M512.512 990.208c-123.392 0-247.296-47.104-340.992-141.824C81.408 757.76 32.256 636.928 32.768 508.416c0.512-128 51.2-248.32 141.824-338.944 141.312-139.776 357.376-178.176 537.6-95.232 10.24 4.608 14.848 16.896 10.24 27.136-4.608 10.24-16.896 14.848-27.136 10.24C530.432 35.84 332.288 71.168 203.264 199.168c-171.52 169.984-173.056 448.512-2.56 620.544 170.496 172.032 449.024 173.056 621.056 2.56 172.032-170.496 173.056-449.024 2.56-621.056-8.192-8.192-7.68-20.992 0-29.184 8.192-8.192 20.992-7.68 29.184 0 186.368 187.904 184.832 492.544-3.072 678.912-93.184 93.184-215.552 139.264-337.92 139.264z" fill="#535353" p-id="3331"></path><path d="M332.8 414.72m-40.96 0a40.96 40.96 0 1 0 81.92 0 40.96 40.96 0 1 0-81.92 0Z" fill="#535353" p-id="3332"></path><path d="M686.08 414.72m-40.96 0a40.96 40.96 0 1 0 81.92 0 40.96 40.96 0 1 0-81.92 0Z" fill="#535353" p-id="3333"></path><path d="M775.168 139.776m-20.48 0a20.48 20.48 0 1 0 40.96 0 20.48 20.48 0 1 0-40.96 0Z" fill="#535353" p-id="3334"></path><path d="M384 757.76s242.176-41.984 296.96-107.52c-5.12 36.352-86.016 195.072-296.96 107.52z" fill="#F6B37F" p-id="3335"></path><path d="M500.736 798.72c-34.304 0-75.264-7.168-122.368-27.136-6.144-2.56-10.24-9.216-9.216-15.872 0.512-6.656 6.144-12.288 12.8-13.312 66.048-11.264 245.76-52.224 287.744-102.4 4.608-5.12 11.776-7.168 17.92-4.096 6.144 2.56 9.728 9.216 8.704 16.384-3.584 24.064-30.72 84.992-93.184 120.32-24.576 13.824-58.368 26.112-102.4 26.112z m-56.832-37.376c54.784 13.312 103.424 8.192 143.872-14.848 24.064-13.824 41.984-32.256 54.784-49.152-58.368 29.184-142.848 51.712-198.656 64z" fill="#535353" p-id="3336"></path><path d="M439.296 283.648c56.832 12.288 116.736 3.072 174.592-3.584 111.104-12.288 222.208-22.528 333.312-2.56 9.728 1.536 24.576 11.264 25.088 18.432 0.512 12.8-4.096 31.232-12.8 37.888-25.6 19.968-35.84 46.08-41.984 78.336-6.656 32.768-15.36 65.024-26.624 96.256-8.192 27.136-30.72 47.616-58.88 52.224-56.832 11.264-115.712 9.728-172.032-4.608-32.768-8.192-53.76-32.768-65.536-64.512-12.288-34.304-20.992-70.144-29.696-105.472-7.168-28.672-19.456-39.424-47.104-39.424-27.648 0-39.936 11.264-47.104 39.936-8.704 34.816-16.384 70.144-28.672 102.912-15.36 40.448-44.032 67.584-87.04 70.656-43.52 3.072-87.552 4.608-131.072 3.584-44.032-1.024-73.216-26.112-85.504-72.192-8.192-31.232-17.408-62.976-23.04-94.72-4.608-24.064-13.824-42.496-32.768-56.832-6.656-4.608-11.776-10.24-16.384-16.896-11.776-19.456-4.608-41.472 16.384-44.544 40.96-5.12 260.096-15.872 356.864 5.12z" fill="#535353" p-id="3337"></path></svg>